<mxfile host="app.diagrams.net" agent="Mozilla/5.0 (Windows NT 10.0; Win64; x64) AppleWebKit/537.36 (KHTML, like Gecko) Chrome/131.0.0.0 Safari/537.36" version="25.0.3">
  <diagram id="Ht1M8jgEwFfnCIfOTk4-" name="Page-1">
    <mxGraphModel dx="2049" dy="1271" grid="1" gridSize="10" guides="1" tooltips="1" connect="1" arrows="1" fold="1" page="1" pageScale="1" pageWidth="1169" pageHeight="827" math="0" shadow="0">
      <root>
        <mxCell id="0" />
        <mxCell id="1" parent="0" />
        <mxCell id="skcrEZ2b_6ta0W19hMza-21" value="" style="rounded=0;whiteSpace=wrap;html=1;" vertex="1" parent="1">
          <mxGeometry x="-425" y="-494" width="120" height="60" as="geometry" />
        </mxCell>
        <mxCell id="UEzPUAAOIrF-is8g5C7q-164" style="edgeStyle=orthogonalEdgeStyle;rounded=0;orthogonalLoop=1;jettySize=auto;html=1;startArrow=none;startFill=0;endArrow=open;endFill=0;strokeColor=#808080;strokeWidth=2;exitX=1;exitY=0.5;exitDx=0;exitDy=0;exitPerimeter=0;" parent="1" source="skcrEZ2b_6ta0W19hMza-10" edge="1">
          <mxGeometry relative="1" as="geometry">
            <Array as="points">
              <mxPoint x="237" y="-603" />
              <mxPoint x="237" y="-525" />
            </Array>
            <mxPoint x="120" y="-600" as="sourcePoint" />
            <mxPoint x="286" y="-525" as="targetPoint" />
          </mxGeometry>
        </mxCell>
        <mxCell id="UEzPUAAOIrF-is8g5C7q-165" style="edgeStyle=orthogonalEdgeStyle;rounded=0;orthogonalLoop=1;jettySize=auto;html=1;startArrow=none;startFill=0;endArrow=open;endFill=0;strokeColor=#808080;strokeWidth=2;exitX=1;exitY=0.5;exitDx=0;exitDy=0;exitPerimeter=0;" parent="1" source="skcrEZ2b_6ta0W19hMza-11" edge="1">
          <mxGeometry relative="1" as="geometry">
            <Array as="points">
              <mxPoint x="95" y="-456" />
              <mxPoint x="240" y="-456" />
              <mxPoint x="240" y="-525" />
            </Array>
            <mxPoint x="123.77944082309386" y="-456" as="sourcePoint" />
            <mxPoint x="286" y="-525" as="targetPoint" />
          </mxGeometry>
        </mxCell>
        <mxCell id="UEzPUAAOIrF-is8g5C7q-162" style="edgeStyle=orthogonalEdgeStyle;rounded=0;orthogonalLoop=1;jettySize=auto;html=1;startArrow=none;startFill=0;endArrow=open;endFill=0;strokeColor=#808080;strokeWidth=2;" parent="1" edge="1">
          <mxGeometry relative="1" as="geometry">
            <Array as="points">
              <mxPoint x="325" y="-674" />
              <mxPoint x="295" y="-674" />
            </Array>
            <mxPoint x="325" y="-564" as="sourcePoint" />
            <mxPoint x="295" y="-716" as="targetPoint" />
          </mxGeometry>
        </mxCell>
        <mxCell id="UEzPUAAOIrF-is8g5C7q-163" style="edgeStyle=orthogonalEdgeStyle;rounded=0;orthogonalLoop=1;jettySize=auto;html=1;startArrow=none;startFill=0;endArrow=open;endFill=0;strokeColor=#808080;strokeWidth=2;" parent="1" edge="1">
          <mxGeometry relative="1" as="geometry">
            <Array as="points">
              <mxPoint x="325" y="-674" />
              <mxPoint x="455" y="-674" />
            </Array>
            <mxPoint x="325" y="-564" as="sourcePoint" />
            <mxPoint x="455" y="-716" as="targetPoint" />
          </mxGeometry>
        </mxCell>
        <mxCell id="UEzPUAAOIrF-is8g5C7q-166" style="edgeStyle=orthogonalEdgeStyle;rounded=0;orthogonalLoop=1;jettySize=auto;html=1;startArrow=none;startFill=0;endArrow=open;endFill=0;strokeColor=#808080;strokeWidth=2;" parent="1" edge="1">
          <mxGeometry relative="1" as="geometry">
            <mxPoint x="325" y="-486" as="sourcePoint" />
            <mxPoint x="325" y="-383.98184019370456" as="targetPoint" />
          </mxGeometry>
        </mxCell>
        <mxCell id="UEzPUAAOIrF-is8g5C7q-167" style="edgeStyle=orthogonalEdgeStyle;rounded=0;orthogonalLoop=1;jettySize=auto;html=1;startArrow=none;startFill=0;endArrow=open;endFill=0;strokeColor=#808080;strokeWidth=2;" parent="1" edge="1">
          <mxGeometry relative="1" as="geometry">
            <mxPoint x="796" y="-525" as="targetPoint" />
            <Array as="points">
              <mxPoint x="686" y="-525" />
              <mxPoint x="686" y="-525" />
            </Array>
            <mxPoint x="364" y="-525" as="sourcePoint" />
          </mxGeometry>
        </mxCell>
        <mxCell id="UEzPUAAOIrF-is8g5C7q-168" style="edgeStyle=orthogonalEdgeStyle;rounded=0;orthogonalLoop=1;jettySize=auto;html=1;startArrow=none;startFill=0;endArrow=open;endFill=0;strokeColor=#808080;strokeWidth=2;" parent="1" edge="1">
          <mxGeometry relative="1" as="geometry">
            <Array as="points">
              <mxPoint x="346" y="-643" />
            </Array>
            <mxPoint x="346" y="-564" as="sourcePoint" />
            <mxPoint x="616" y="-643" as="targetPoint" />
          </mxGeometry>
        </mxCell>
        <mxCell id="UEzPUAAOIrF-is8g5C7q-172" style="edgeStyle=orthogonalEdgeStyle;rounded=0;orthogonalLoop=1;jettySize=auto;html=1;startArrow=none;startFill=0;endArrow=open;endFill=0;strokeColor=#808080;strokeWidth=2;" parent="1" edge="1">
          <mxGeometry relative="1" as="geometry">
            <Array as="points">
              <mxPoint x="950" y="-243" />
              <mxPoint x="950" y="-186" />
            </Array>
            <mxPoint x="851" y="-242.9000000000001" as="sourcePoint" />
            <mxPoint x="1008.5082725615316" y="-186" as="targetPoint" />
          </mxGeometry>
        </mxCell>
        <mxCell id="UEzPUAAOIrF-is8g5C7q-173" style="edgeStyle=orthogonalEdgeStyle;rounded=0;orthogonalLoop=1;jettySize=auto;html=1;startArrow=none;startFill=0;endArrow=open;endFill=0;strokeColor=#808080;strokeWidth=2;" parent="1" edge="1">
          <mxGeometry relative="1" as="geometry">
            <Array as="points">
              <mxPoint x="950" y="-135" />
              <mxPoint x="950" y="-186" />
            </Array>
            <mxPoint x="851" y="-134.9000000000001" as="sourcePoint" />
            <mxPoint x="1008.5082725615316" y="-186" as="targetPoint" />
          </mxGeometry>
        </mxCell>
        <mxCell id="UEzPUAAOIrF-is8g5C7q-155" value="" style="rounded=0;whiteSpace=wrap;html=1;dashed=1;labelBackgroundColor=#ffffff;fillColor=none;gradientColor=none;container=1;pointerEvents=0;collapsible=0;recursiveResize=0;" parent="1" vertex="1">
          <mxGeometry x="721" y="-344" width="219" height="394" as="geometry" />
        </mxCell>
        <mxCell id="skcrEZ2b_6ta0W19hMza-36" value="Vertical Container" style="swimlane;whiteSpace=wrap;html=1;" vertex="1" parent="UEzPUAAOIrF-is8g5C7q-155">
          <mxGeometry x="49" y="54" width="85" height="89" as="geometry" />
        </mxCell>
        <mxCell id="skcrEZ2b_6ta0W19hMza-38" value="TEMPLATE" style="text;html=1;align=center;verticalAlign=middle;resizable=0;points=[];autosize=1;strokeColor=none;fillColor=none;" vertex="1" parent="skcrEZ2b_6ta0W19hMza-36">
          <mxGeometry x="-3.5" y="29" width="90" height="30" as="geometry" />
        </mxCell>
        <mxCell id="skcrEZ2b_6ta0W19hMza-41" value="INVENTARIO" style="text;html=1;align=center;verticalAlign=middle;resizable=0;points=[];autosize=1;strokeColor=none;fillColor=none;" vertex="1" parent="skcrEZ2b_6ta0W19hMza-36">
          <mxGeometry x="-9" y="47" width="100" height="30" as="geometry" />
        </mxCell>
        <mxCell id="skcrEZ2b_6ta0W19hMza-39" value="Vertical Container" style="swimlane;whiteSpace=wrap;html=1;" vertex="1" parent="UEzPUAAOIrF-is8g5C7q-155">
          <mxGeometry x="49" y="154" width="80" height="110" as="geometry" />
        </mxCell>
        <mxCell id="skcrEZ2b_6ta0W19hMza-43" style="edgeStyle=orthogonalEdgeStyle;rounded=0;orthogonalLoop=1;jettySize=auto;html=1;" edge="1" parent="UEzPUAAOIrF-is8g5C7q-155" source="skcrEZ2b_6ta0W19hMza-42">
          <mxGeometry relative="1" as="geometry">
            <mxPoint x="229" y="154" as="targetPoint" />
          </mxGeometry>
        </mxCell>
        <mxCell id="skcrEZ2b_6ta0W19hMza-42" value="Vertical Container" style="swimlane;whiteSpace=wrap;html=1;" vertex="1" parent="UEzPUAAOIrF-is8g5C7q-155">
          <mxGeometry x="49" y="274" width="97.5" height="110" as="geometry" />
        </mxCell>
        <mxCell id="skcrEZ2b_6ta0W19hMza-44" value="TEMPLATE&lt;div&gt;DISTRIBUCION&lt;/div&gt;" style="text;html=1;align=center;verticalAlign=middle;resizable=0;points=[];autosize=1;strokeColor=none;fillColor=none;" vertex="1" parent="skcrEZ2b_6ta0W19hMza-42">
          <mxGeometry x="-12.5" y="35" width="110" height="40" as="geometry" />
        </mxCell>
        <mxCell id="skcrEZ2b_6ta0W19hMza-1" value="BD" style="shape=cylinder3;whiteSpace=wrap;html=1;boundedLbl=1;backgroundOutline=1;size=15;" vertex="1" parent="1">
          <mxGeometry x="625" y="-700" width="60" height="80" as="geometry" />
        </mxCell>
        <mxCell id="skcrEZ2b_6ta0W19hMza-56" style="edgeStyle=orthogonalEdgeStyle;rounded=0;orthogonalLoop=1;jettySize=auto;html=1;" edge="1" parent="1" source="skcrEZ2b_6ta0W19hMza-2">
          <mxGeometry relative="1" as="geometry">
            <mxPoint x="650" y="-280" as="targetPoint" />
          </mxGeometry>
        </mxCell>
        <mxCell id="skcrEZ2b_6ta0W19hMza-2" value="NESTJS&lt;span style=&quot;background-color: initial;&quot;&gt;&amp;nbsp;&lt;/span&gt;&lt;div&gt;&lt;div&gt;NODE.JS&lt;/div&gt;&lt;/div&gt;" style="rounded=0;whiteSpace=wrap;html=1;" vertex="1" parent="1">
          <mxGeometry x="265" y="-560" width="120" height="60" as="geometry" />
        </mxCell>
        <mxCell id="skcrEZ2b_6ta0W19hMza-3" value="SQLite" style="text;html=1;align=center;verticalAlign=middle;resizable=0;points=[];autosize=1;strokeColor=none;fillColor=none;" vertex="1" parent="1">
          <mxGeometry x="625" y="-614" width="60" height="30" as="geometry" />
        </mxCell>
        <mxCell id="skcrEZ2b_6ta0W19hMza-5" value="BASE DE DATOS AQUASYS" style="text;html=1;align=center;verticalAlign=middle;resizable=0;points=[];autosize=1;strokeColor=none;fillColor=none;" vertex="1" parent="1">
          <mxGeometry x="565" y="-593.5" width="180" height="30" as="geometry" />
        </mxCell>
        <mxCell id="skcrEZ2b_6ta0W19hMza-7" style="edgeStyle=orthogonalEdgeStyle;rounded=0;orthogonalLoop=1;jettySize=auto;html=1;entryX=0;entryY=0;entryDx=0;entryDy=0;" edge="1" parent="1" source="skcrEZ2b_6ta0W19hMza-6" target="skcrEZ2b_6ta0W19hMza-2">
          <mxGeometry relative="1" as="geometry" />
        </mxCell>
        <mxCell id="skcrEZ2b_6ta0W19hMza-6" value="BACKEND" style="text;html=1;align=center;verticalAlign=middle;resizable=0;points=[];autosize=1;strokeColor=none;fillColor=none;" vertex="1" parent="1">
          <mxGeometry x="15" y="-692" width="80" height="30" as="geometry" />
        </mxCell>
        <mxCell id="skcrEZ2b_6ta0W19hMza-10" value="" style="shape=cylinder3;whiteSpace=wrap;html=1;boundedLbl=1;backgroundOutline=1;size=15;" vertex="1" parent="1">
          <mxGeometry x="46" y="-643.5" width="60" height="80" as="geometry" />
        </mxCell>
        <mxCell id="skcrEZ2b_6ta0W19hMza-11" value="" style="shape=cylinder3;whiteSpace=wrap;html=1;boundedLbl=1;backgroundOutline=1;size=15;" vertex="1" parent="1">
          <mxGeometry x="35" y="-500" width="60" height="80" as="geometry" />
        </mxCell>
        <mxCell id="skcrEZ2b_6ta0W19hMza-12" value="" style="shape=cylinder3;whiteSpace=wrap;html=1;boundedLbl=1;backgroundOutline=1;size=15;" vertex="1" parent="1">
          <mxGeometry x="46" y="-270" width="60" height="80" as="geometry" />
        </mxCell>
        <mxCell id="skcrEZ2b_6ta0W19hMza-13" value="VENTAS E INVENTARIO" style="text;html=1;align=center;verticalAlign=middle;resizable=0;points=[];autosize=1;strokeColor=none;fillColor=none;" vertex="1" parent="1">
          <mxGeometry y="-562" width="160" height="30" as="geometry" />
        </mxCell>
        <mxCell id="skcrEZ2b_6ta0W19hMza-14" value="AUTHORIZACION" style="text;html=1;align=center;verticalAlign=middle;resizable=0;points=[];autosize=1;strokeColor=none;fillColor=none;" vertex="1" parent="1">
          <mxGeometry x="5" y="-409.5" width="120" height="30" as="geometry" />
        </mxCell>
        <mxCell id="skcrEZ2b_6ta0W19hMza-15" value="DISTRIBUCION" style="text;html=1;align=center;verticalAlign=middle;resizable=0;points=[];autosize=1;strokeColor=none;fillColor=none;" vertex="1" parent="1">
          <mxGeometry x="25" y="-177" width="110" height="30" as="geometry" />
        </mxCell>
        <mxCell id="skcrEZ2b_6ta0W19hMza-16" value="MICROSERVICIOS" style="text;html=1;align=center;verticalAlign=middle;resizable=0;points=[];autosize=1;strokeColor=none;fillColor=none;" vertex="1" parent="1">
          <mxGeometry x="-430" y="-475" width="130" height="30" as="geometry" />
        </mxCell>
        <mxCell id="skcrEZ2b_6ta0W19hMza-18" style="edgeStyle=orthogonalEdgeStyle;rounded=0;orthogonalLoop=1;jettySize=auto;html=1;entryX=0;entryY=0;entryDx=0;entryDy=15;entryPerimeter=0;" edge="1" parent="1" source="skcrEZ2b_6ta0W19hMza-16" target="skcrEZ2b_6ta0W19hMza-12">
          <mxGeometry relative="1" as="geometry">
            <Array as="points">
              <mxPoint x="-200" y="-460" />
              <mxPoint x="-200" y="-255" />
            </Array>
          </mxGeometry>
        </mxCell>
        <mxCell id="skcrEZ2b_6ta0W19hMza-19" style="edgeStyle=orthogonalEdgeStyle;rounded=0;orthogonalLoop=1;jettySize=auto;html=1;entryX=0;entryY=0.5;entryDx=0;entryDy=0;entryPerimeter=0;" edge="1" parent="1" source="skcrEZ2b_6ta0W19hMza-16" target="skcrEZ2b_6ta0W19hMza-11">
          <mxGeometry relative="1" as="geometry">
            <Array as="points">
              <mxPoint x="-230" y="-460" />
              <mxPoint x="-230" y="-460" />
            </Array>
          </mxGeometry>
        </mxCell>
        <mxCell id="skcrEZ2b_6ta0W19hMza-20" style="edgeStyle=orthogonalEdgeStyle;rounded=0;orthogonalLoop=1;jettySize=auto;html=1;entryX=0;entryY=0.5;entryDx=0;entryDy=0;entryPerimeter=0;" edge="1" parent="1" source="skcrEZ2b_6ta0W19hMza-16" target="skcrEZ2b_6ta0W19hMza-10">
          <mxGeometry relative="1" as="geometry">
            <Array as="points">
              <mxPoint x="-200" y="-460" />
              <mxPoint x="-200" y="-603" />
            </Array>
          </mxGeometry>
        </mxCell>
        <mxCell id="skcrEZ2b_6ta0W19hMza-22" style="edgeStyle=orthogonalEdgeStyle;rounded=0;orthogonalLoop=1;jettySize=auto;html=1;entryX=1;entryY=0;entryDx=0;entryDy=52.5;entryPerimeter=0;" edge="1" parent="1" source="skcrEZ2b_6ta0W19hMza-2" target="skcrEZ2b_6ta0W19hMza-12">
          <mxGeometry relative="1" as="geometry">
            <Array as="points">
              <mxPoint x="240" y="-530" />
              <mxPoint x="240" y="-217" />
            </Array>
          </mxGeometry>
        </mxCell>
        <mxCell id="skcrEZ2b_6ta0W19hMza-26" style="edgeStyle=orthogonalEdgeStyle;rounded=0;orthogonalLoop=1;jettySize=auto;html=1;" edge="1" parent="1" source="skcrEZ2b_6ta0W19hMza-23" target="UEzPUAAOIrF-is8g5C7q-155">
          <mxGeometry relative="1" as="geometry">
            <Array as="points">
              <mxPoint x="215" y="-67" />
              <mxPoint x="215" y="90" />
              <mxPoint x="831" y="90" />
            </Array>
          </mxGeometry>
        </mxCell>
        <mxCell id="skcrEZ2b_6ta0W19hMza-23" value="&amp;nbsp;Proxy Inverso&lt;div&gt;&amp;nbsp;(NGINX)&amp;nbsp;&amp;nbsp;&lt;/div&gt;" style="whiteSpace=wrap;html=1;aspect=fixed;" vertex="1" parent="1">
          <mxGeometry x="-438" y="-140" width="146" height="146" as="geometry" />
        </mxCell>
        <mxCell id="skcrEZ2b_6ta0W19hMza-25" style="edgeStyle=orthogonalEdgeStyle;rounded=0;orthogonalLoop=1;jettySize=auto;html=1;entryX=0;entryY=0.367;entryDx=0;entryDy=0;entryPerimeter=0;" edge="1" parent="1" source="skcrEZ2b_6ta0W19hMza-23" target="skcrEZ2b_6ta0W19hMza-16">
          <mxGeometry relative="1" as="geometry">
            <Array as="points">
              <mxPoint x="-500" y="-67" />
              <mxPoint x="-500" y="-464" />
            </Array>
          </mxGeometry>
        </mxCell>
        <mxCell id="skcrEZ2b_6ta0W19hMza-28" style="edgeStyle=orthogonalEdgeStyle;rounded=0;orthogonalLoop=1;jettySize=auto;html=1;" edge="1" parent="1" source="skcrEZ2b_6ta0W19hMza-27">
          <mxGeometry relative="1" as="geometry">
            <mxPoint x="1046" y="-225" as="targetPoint" />
          </mxGeometry>
        </mxCell>
        <mxCell id="skcrEZ2b_6ta0W19hMza-27" value="FRONTEND" style="text;html=1;align=center;verticalAlign=middle;resizable=0;points=[];autosize=1;fillColor=#dae8fc;strokeColor=#6c8ebf;" vertex="1" parent="1">
          <mxGeometry x="1023" y="-330" width="90" height="30" as="geometry" />
        </mxCell>
        <mxCell id="skcrEZ2b_6ta0W19hMza-34" style="edgeStyle=orthogonalEdgeStyle;rounded=0;orthogonalLoop=1;jettySize=auto;html=1;entryX=1;entryY=0.5;entryDx=0;entryDy=0;" edge="1" parent="1" source="skcrEZ2b_6ta0W19hMza-33">
          <mxGeometry relative="1" as="geometry">
            <mxPoint x="1132" y="-165" as="targetPoint" />
            <Array as="points">
              <mxPoint x="1085" y="40" />
              <mxPoint x="1240" y="40" />
              <mxPoint x="1240" y="-165" />
            </Array>
          </mxGeometry>
        </mxCell>
        <mxCell id="skcrEZ2b_6ta0W19hMza-33" value="AQUI GUARDO MIS ARCHIVOS ESTATICOS" style="text;html=1;align=center;verticalAlign=middle;resizable=0;points=[];autosize=1;strokeColor=none;fillColor=none;" vertex="1" parent="1">
          <mxGeometry x="950" y="-96" width="270" height="30" as="geometry" />
        </mxCell>
        <mxCell id="skcrEZ2b_6ta0W19hMza-35" value="STORAGE" style="ellipse;shape=cloud;whiteSpace=wrap;html=1;" vertex="1" parent="1">
          <mxGeometry x="996" y="-230" width="144" height="110" as="geometry" />
        </mxCell>
        <mxCell id="skcrEZ2b_6ta0W19hMza-40" value="TEMPLATE&lt;div&gt;VENTAS&lt;/div&gt;" style="text;html=1;align=center;verticalAlign=middle;resizable=0;points=[];autosize=1;strokeColor=none;fillColor=none;" vertex="1" parent="1">
          <mxGeometry x="766" y="-158" width="90" height="40" as="geometry" />
        </mxCell>
        <mxCell id="skcrEZ2b_6ta0W19hMza-46" value="MONITOREO" style="shape=cylinder3;whiteSpace=wrap;html=1;boundedLbl=1;backgroundOutline=1;size=15;" vertex="1" parent="1">
          <mxGeometry x="250" y="-814" width="90" height="104" as="geometry" />
        </mxCell>
        <mxCell id="skcrEZ2b_6ta0W19hMza-47" value="NOTIFICACION PUSH Y MENSAJES" style="shape=cylinder3;whiteSpace=wrap;html=1;boundedLbl=1;backgroundOutline=1;size=15;" vertex="1" parent="1">
          <mxGeometry x="410" y="-827" width="90" height="97" as="geometry" />
        </mxCell>
        <mxCell id="skcrEZ2b_6ta0W19hMza-50" value="" style="shape=process;whiteSpace=wrap;html=1;backgroundOutline=1;rotation=-90;" vertex="1" parent="1">
          <mxGeometry x="265" y="-345" width="120" height="60" as="geometry" />
        </mxCell>
        <mxCell id="skcrEZ2b_6ta0W19hMza-51" value="" style="whiteSpace=wrap;html=1;aspect=fixed;" vertex="1" parent="1">
          <mxGeometry x="305" y="-320" width="40" height="40" as="geometry" />
        </mxCell>
        <mxCell id="skcrEZ2b_6ta0W19hMza-53" value="" style="endArrow=none;html=1;rounded=0;" edge="1" parent="1">
          <mxGeometry width="50" height="50" relative="1" as="geometry">
            <mxPoint x="305" y="-345" as="sourcePoint" />
            <mxPoint x="340" y="-345" as="targetPoint" />
          </mxGeometry>
        </mxCell>
        <mxCell id="skcrEZ2b_6ta0W19hMza-54" value="" style="endArrow=none;html=1;rounded=0;" edge="1" parent="1">
          <mxGeometry width="50" height="50" relative="1" as="geometry">
            <mxPoint x="305" y="-335" as="sourcePoint" />
            <mxPoint x="340" y="-335" as="targetPoint" />
          </mxGeometry>
        </mxCell>
        <mxCell id="skcrEZ2b_6ta0W19hMza-55" value="SERVICIO BASES DATOS" style="text;html=1;align=center;verticalAlign=middle;resizable=0;points=[];autosize=1;strokeColor=none;fillColor=none;" vertex="1" parent="1">
          <mxGeometry x="570" y="-734" width="170" height="30" as="geometry" />
        </mxCell>
        <mxCell id="skcrEZ2b_6ta0W19hMza-57" value="GEOLOCALIZACION" style="rounded=1;whiteSpace=wrap;html=1;" vertex="1" parent="1">
          <mxGeometry x="580" y="-280" width="120" height="60" as="geometry" />
        </mxCell>
        <mxCell id="skcrEZ2b_6ta0W19hMza-58" value="MAQUINA VIRTUAL O INSTANCIA" style="text;html=1;align=center;verticalAlign=middle;resizable=0;points=[];autosize=1;strokeColor=none;fillColor=none;" vertex="1" parent="1">
          <mxGeometry x="240" y="-240" width="210" height="30" as="geometry" />
        </mxCell>
        <mxCell id="skcrEZ2b_6ta0W19hMza-59" value="Container" style="swimlane;" vertex="1" parent="1">
          <mxGeometry x="796" y="-614" width="84" height="144" as="geometry" />
        </mxCell>
        <mxCell id="skcrEZ2b_6ta0W19hMza-62" value="" style="swimlane;startSize=0;" vertex="1" parent="skcrEZ2b_6ta0W19hMza-59">
          <mxGeometry x="12" y="30" width="60" height="100" as="geometry" />
        </mxCell>
        <mxCell id="skcrEZ2b_6ta0W19hMza-61" value="KOTLIN" style="text;html=1;align=center;verticalAlign=middle;resizable=0;points=[];autosize=1;strokeColor=none;fillColor=none;" vertex="1" parent="1">
          <mxGeometry x="890" y="-584" width="70" height="30" as="geometry" />
        </mxCell>
        <mxCell id="skcrEZ2b_6ta0W19hMza-60" value="APP LOGISTICA" style="text;html=1;align=center;verticalAlign=middle;resizable=0;points=[];autosize=1;strokeColor=none;fillColor=none;" vertex="1" parent="1">
          <mxGeometry x="796" y="-662" width="110" height="30" as="geometry" />
        </mxCell>
        <mxCell id="skcrEZ2b_6ta0W19hMza-63" value="ANDROID STUDIO" style="text;html=1;align=center;verticalAlign=middle;resizable=0;points=[];autosize=1;strokeColor=none;fillColor=none;" vertex="1" parent="1">
          <mxGeometry x="890" y="-554" width="130" height="30" as="geometry" />
        </mxCell>
      </root>
    </mxGraphModel>
  </diagram>
</mxfile>
